<?xml version="1.0" encoding="utf-8"?>
<!-- Generator: Adobe Illustrator 26.0.1, SVG Export Plug-In . SVG Version: 6.00 Build 0)  -->
<svg version="1.1" xmlns="http://www.w3.org/2000/svg" xmlns:xlink="http://www.w3.org/1999/xlink" x="0px" y="0px"
	 viewBox="0 0 476.9 241.4" style="enable-background:new 0 0 476.9 241.4;" xml:space="preserve">
<style type="text/css">
	.st0{fill:#231F20;}
	.st1{display:none;fill:none;stroke:#231F20;stroke-width:0.5;stroke-miterlimit:10;}
</style>
<g id="Layer_1">
	<g>
		<path class="st0" d="M163.2,63h0.2c4.8-12,17.6-18.6,31.4-18.6c18.1,0,30.1,11.6,30.1,30.6v60.1h-2.2V75
			c0-17.9-10.9-28.5-27.8-28.5c-16.6,0-31.6,9.7-31.6,27.3v61.3H161V0h2.2V63z"/>
		<path class="st0" d="M327.5,90.5h-74.1c0,27.7,17.1,43.7,39.6,43.7c11.6,0,23.6-3.9,33.3-13v2.6c-9.7,8.4-21.9,12.5-33.3,12.5
			c-23.7,0-41.8-17.1-41.8-45.9c0-28.5,19.5-45.9,40.3-45.9c19,0,36.2,14.7,36.2,43.9C327.6,89.3,327.5,90.5,327.5,90.5z
			 M325.4,88.4c0-28.2-16.2-42-34-42c-19.1,0-37.2,15.7-38.1,42H325.4z"/>
	</g>
	<path class="st1" d="M371,124.8H228.3c-6.8,0-6.9-5.7-6.9-5.7"/>
</g>
<g id="_x3C_Layer_x3E_">
	<g>
		<path class="st0" d="M65.9,121.1v2.7c-8.2-7-19.3-9.4-27.7-9.4c-20,0-32.6,12.3-32.6,27.7c0,16.2,14.7,23.7,32.3,31.9
			c16.9,7.9,33,16.2,33,35c0,18.1-15.2,32.4-36.7,32.4c-12,0-24.4-4.4-34.2-12.5v-2.7c9.7,8.5,22.2,13.1,34,13.1
			c20.5,0,34.7-13.3,34.7-30.4c0-17.6-15.4-25.4-32.4-33.5C17.9,167,3.4,159.3,3.4,142.1c0-16.4,13.7-29.7,34.7-29.7
			C46.6,112.4,57.7,114.6,65.9,121.1z"/>
		<path class="st0" d="M100.9,129.4v-119h43v-2H55.7v2h43v119v5.6v15.7H84.9v2h13.8v62.3c0,19.1,10.8,26.1,25.3,26.1
			c2.9,0,5.8-0.3,7.2-0.7v-2c-2.4,0.5-4.4,0.7-7,0.7c-13.5,0-23.2-6-23.2-24.4v-62h27.3v-2h-27.3v-15.7V129.4z"/>
		<path class="st0" d="M149.4,150.8h1.9l0.2,19.6h0.2c4.3-13.1,15.9-20.3,26.8-20.3c1.5,0,3.9,0.2,5.3,0.3v2
			c-1.2-0.2-3.4-0.3-5.3-0.3c-12.6,0-26.1,10.1-26.8,27.7v60.4h-2.2V150.8z"/>
		<path class="st0" d="M190.7,195.5c0-28.5,19.5-45.9,40.5-45.9c16.6,0,32.8,10.4,38.2,30.4h0.2l0.2-29.2h1.9v89.5h-1.9l-0.2-29.2
			h-0.2c-5.5,20-21.5,30.4-38.1,30.4C210.3,241.4,190.7,224,190.7,195.5z M269.6,195.5c0-27.7-18.3-43.9-38.4-43.9
			c-19.8,0-38.2,16.4-38.2,43.9s18.6,43.9,38.4,43.9S269.6,223.2,269.6,195.5z"/>
		<path class="st0" d="M369.6,180v60.3h-2.2V180c0-17.9-11.1-28.3-28.2-28.3c-16.6,0-31.2,9.6-31.2,27.8v60.8h-2.2v-89.5h1.9
			l0.2,18.3h0.2c4.6-12.6,16.7-19.5,31.2-19.5C357.5,149.6,369.6,161,369.6,180z"/>
		<path class="st0" d="M395.9,195.5c0-28.5,19.5-45.9,40.5-45.9c16.6,0,32.6,10.4,38.1,30.4h0.2v-74.8h2.2v135.1H475l-0.2-29.7h-0.2
			c-5.5,20.5-21.5,30.9-38.1,30.9C415.6,241.4,395.9,224,395.9,195.5z M474.8,195.5c0-27.7-18.3-43.9-38.4-43.9
			c-19.8,0-38.2,16.4-38.2,43.9s18.6,43.9,38.4,43.9S474.8,223.2,474.8,195.5z"/>
	</g>
</g>
</svg>
